<?xml version="1.0" encoding="UTF-8"?><svg id="a" xmlns="http://www.w3.org/2000/svg" viewBox="0 0 430.63 430.63"><defs><style>.b{fill:#fff;}.c{fill:#115740;}.d{fill:#002554;}</style></defs><path class="c" d="m215.31,0C96.4,0,0,96.4,0,215.31s96.4,215.32,215.31,215.32,215.32-96.41,215.32-215.32S334.23,0,215.31,0Z"/><circle class="b" cx="215.31" cy="215.32" r="142.94" transform="translate(-89.19 215.31) rotate(-45)"/><path class="c" d="m177.85,337.08v-7.79l.07-3.85-.34-.27-5.76,1.04v1.3l.32-.03c.56-.05,2.1-.15,2.52.13.48.32.57,1.26.58,1.39v8.08c0,1.44-.03,2.69-.05,4.16h-3.75s-.01,1.51-.01,1.51h10.1v-1.51s-3.64,0-3.64,0c-.02-1.49-.05-2.72-.05-4.16Z"/><path class="c" d="m204.33,333.58c-.11-.11-.31-.27-.34-.42-.04-.27.34-.57.38-.61,1.8-1.15,2.44-2.44,2.44-3.67,0-2.29-1.76-4.05-4.85-4.05-2.9,0-5.19,1.76-5.19,4.55,0,1.76.84,3.25,2.75,4.43.11.08.27.23.23.38-.04.15-.27.34-.31.38-2.1,1.03-3.21,2.33-3.21,4.16,0,2.64,2.1,4.16,5.54,4.16s5.81-1.87,5.81-4.62c0-2.06-1.03-3.44-3.25-4.7Zm-5.27-4.97c0-1.72,1.34-2.79,2.86-2.79,1.72,0,2.67,1.37,2.67,3.17,0,1.49-.5,2.6-1.91,3.78-2.9-1.38-3.63-2.71-3.63-4.16Zm2.86,13.37c-2.02,0-3.32-1.37-3.32-3.59,0-1.76.76-2.79,2.33-3.86,3.17,1.49,4.12,2.64,4.12,4.24,0,1.91-1.18,3.21-3.13,3.21Z"/><path class="c" d="m227.66,324.83c-3.28,0-5.81,2.14-5.84,5.58,0,3.32,2.29,5.27,5.27,5.27.88,0,1.64-.15,2.33-.46.11-.04.42-.11.61,0,.23.15.19.61.15.88l-.04.15c-.95,2.79-3.09,4.74-6.91,6.03l.15.76c6.8-1.53,10.12-5.84,10.12-11.08,0-4.39-2.18-7.14-5.84-7.14Zm3.09,8.02s0,.19-.11.42c-.08.23-.31.42-.42.53-.65.38-1.34.57-2.18.57-2.06,0-3.55-1.41-3.55-4.32s1.45-4.24,3.13-4.24c1.87,0,3.17,1.79,3.17,6.23,0,.27-.04.53-.04.8Z"/><path class="c" d="m254.71,333.42c2.66-.71,3.95-2.32,3.95-4.34,0-2.49-1.9-4.25-5.2-4.25-2.56,0-5.65,1.78-5.15,3.61.24.63.73.85,1.27.85.83,0,1.29-.44,1.54-1.56l.18-.67h0s.29-.51.67-.8c.5-.38,1.28-.39,1.47-.39,1.66.23,2.62,1.38,2.62,3.28,0,2.46-1.51,3.78-3.86,3.78h-1v1.07h1.2c2.71,0,4.1,1.42,4.1,3.95,0,2.38-1.23,3.8-3.56,3.96h.04s-.72,0-1.3-.22c-.46-.18-.82-.87-.88-.98l-.18-.76c-.32-1.32-.68-2.03-1.56-2.06-.61-.02-1.27.25-1.27,1.14.2,2.81,2.37,3.88,5.3,3.88,3.71,0,6.13-2.12,6.13-5.05,0-2.27-1.34-3.93-4.49-4.44Z"/><path class="b" d="m300.42,352.44c-.99-.54-2.17-.99-2.54-.71s-.55.26-.95.9c-.4.64-.99,2.1-1.65,1.25-.65-.85-1.19-2.22-1.74-2.57s-1.3-.4-1.9-.32-1.15-.03-1.18.38.27,2.05.59,2.97c.33.92.78,1.96.38,2.48s-2.42.69-2.68,1.03-.81,1-.25,1.39c.56.39,1.57.89,1.58,1.37s-.36,1.7,0,2.24c.36.54,1.38,1.01,1.89.08s1.38-.83,1.28-.05-.04,1.45-1.03,2.31c-.99.87-2.6,1.25-1.53,1.91,1.07.66,1.9.95,2,1.74s0,1.17-.22,1.45-.26.59.35.76.96,0,1.36-.19.95-.44,1.13.11.29.92.18,1.13c-.04.09-.91.67-1.41,1.79-.7,1.55-1.69,3.76-3.1,5.22-2.34,2.44-2.47,2.84-3.21,3.08-.6.2-.72.1-.89.24s-.27.6-.13.81.76,1.8,2.16,1.73c1.41-.07,2.94-.53,3.79-1.75.86-1.22,5.26-13.02,5.89-13.8.63-.78,1.76-.87,1.85-.48.09.39.22,1.33-.44,2.48s-1.38,1.83-1.39,2.09.49,1.05.77,1.84c.26.72.15,1.07.56,1.57.41.49.88.92.9,1.03s-.5,1.51-1.49,3.39-1.24,2.22-1.71,2.65-1.05.71-1.01,1.01.47.9,1.18.94,1.29-.04,1.62-.43.73-1.69,1.47-2.98.9-1.87,1.14-2.05,1.23-.05,1.63.73c.4.77.56,1.59-.03,2.53-.59.94-1.68,1.51-1.73,1.73s.2,1.14,1.66,1.13,1.97-.45,2.58-.76,1.36-.19,1.8-.63.86-1.99.16-3.42c-.7-1.43-1.09-2.07-1.63-2.74s-1.82-2.14-1.04-2.99c.79-.85,1.1-1.08,1.46-1.22s1.2-1.06.95-1.71-1.07-1.23-1.48-.96-.83,1.55-1.39,2.13c-.57.58-1.39,1.38-2.17.78s-1.44-1.33-1.53-1.65.68-1.26,1.23-2.63c.55-1.37,1.53-4.45.99-5.96-.54-1.52-1.27-1.67-1.64-1.53s-1.92,1.23-2.45.55-.49-1.46.15-2.93c.65-1.47.84-2.56.84-3.03s-.04-.93.46-1.39,1.64-.98,1.25-1.94c-.39-.96-.71-1.6-1.71-2.14Zm-3.58,9.13c-.16.45-.4,1.14-.96,1.29s-.87-.02-.94-.32c-.08-.32.08-1.34.88-1.83.61-.37,1.18.41,1.02.86Zm1.51-4.52c-.07.28-.22.61-.64.77s-.68.02-.76-.03-.23-.19.02-.51.68-.64.9-.68.56.18.49.45Z"/><path class="b" d="m285.73,375.93c-.05-.07,0-.34.25-.53s.71-1.47-.24-2.59c-.95-1.12-2.26-2.23-2.36-2.52s-.14-.68.58-1.08,1.16-.72,1.04-1.25-.34-.64-.16-.96.56-.72,1.94-.27c1.38.45,2.25,1.45,2.48,1.77s.5.74.17,1.77-1.09,2.09-.98,2.63.54.85.57,1.15.08,2.01-.38,2.57c-.46.56-1.35.47-1.94.09s-.8-.55-.97-.78Z"/><path class="b" d="m152.31,357.38c.68-1.18.88-1.37.61-2.02-.27-.69-1.11-1.6-1.68-2.17-.57-.57-1.11-.72-1.68-.88-.57-.12-.72.3-.76.46-.04.19-.19,1.48-.91,3.71-.69,2.21-3.33,8.02-3.82,8.93-.46.92-.65.96-1.08,1.23-.37.23-8.17-.19-12.14-.39-3.97-.15-5-.37-6.45-.76-1.48-.42-1.53-.57-1.91-.69-.35-.07-.65.65-.65.65,0,0,.08.27.3.84.27.53,1.3,1.45,1.57,1.98.3.54.72,1.31.92,1.41.19.12.88-.3,2.41-.49,1.52-.19,3.59-.12,4.35.12.76.22.81.46.76.69-.07.22-.3.3-1.37,1.75-1.08,1.45-1.3,3.25-1.26,3.62.03.39.64.54.76.57.08.05.54,0,1.45-.22.89-.27,2.19-1.38,2.61-1.57.37-.23,1.3-.05,1.57,0,.26.04.61.19.57.42,0,.26-.65,1.79-1.38,2.63-.76.84-3.37,1.15-9.13,1.75-5.73.62-9.32-1.06-9.7-1.22-.42-.15-.46-.46-.49-.5-.08-.04-.32.08-.5.23-.15.12-.54.72-.19,1.95.37,1.18,1.18,2.02,1.83,2.33.64.3,5.84.72,9.32.49,3.44-.26,10.92-2.63,11.38-2.71.46-.11.91-.11,1.03-.04.07.08.54,2.1.64,3.97.12,1.91-.04,6.34,0,6.57.05.23.69.46.84.54.2.07.5.12.96-.08.42-.15,1.41-.91,1.68-1.15.27-.22.57-.54.69-.79.15-.27.72-1.77,1.91-4.28,1.22-2.56,2.71-4.85,2.78-5.12.12-.27-.07-.42-.26-1.04-.2-.61-.2-.95-.32-1.25-.11-.35-.34.04-.37.07,0,.08,0,.04-.54,1.23-.54,1.18-1.99,3.51-2.37,3.93-.34.42-1.03.69-1.22.27-.19-.37-.3-2.29-.12-4.4.19-2.09,1.48-6.07,1.91-7.06.42-1.03,1.11-.69,1.5-.65.42,0,1.91.12,2.41-.11.46-.23.72-.42.8-1.31.12-.88-.84-.88-1.18-.88-.34.05-1.38-.22-1.53-.68-.19-.42-.11-.57,1.34-3.4,1.45-2.83,3.4-5.31,4.13-6.5Zm-14.3,13.1c-.08.65-1.02,1.96-1.45,2.13-.32.13-.63.14-1.7-.69-1.05-.83-1.33-2.13-1.1-2.33.23-.2.58-.39,1.44-.35.9.04,1.69.18,2.26.41.55.22.61.32.55.83Zm3.32,1.68c-.49,1.19-.95,1.99-1.22,2.2-.27.2-.61-.49-.7-1.04-.08-.5-.26-.94.02-1.91.29-.97.74-1.55,1.11-1.74.37-.2.97-.02,1.11.25.14.27.16,1.05-.33,2.24Z"/><path class="b" d="m121.94,374.34c.15-.38.88-.31,1.22-.34.34,0,1.22-.23,2.02-.73.84-.46,1.15-1.26,1.41-1.11.23.15.31,1.6.27,3.02,0,1.37-1.37,1.22-1.72,1.26-.38,0-3.17.04-3.51-.23-.34-.31.19-1.49.31-1.87Z"/><path class="b" d="m134.62,360.32c.04-.19.19-.23.31-.27.11-.04.5.31,1.64.57,1.11.27,3.17.31,3.97.19.8-.15,1.87-.23,2.71.27.84.53.42,2.44.15,2.98-.27.53-1.03.42-2.18.46-1.11.04-2.79.27-3.32.27-.53-.04-1.53-.57-2.44-1.79-.92-1.22-.92-2.52-.84-2.67Z"/><path class="b" d="m157.04,367.81c-.84,2.37-3.48,2.06-4.09,2.02-.65-.04-.84-.31-.84-.38s1.15-1.91,1.64-3.13c.5-1.26.27-3.48.27-3.48,0,0,.92.34,1.57.76.61.46,2.29,1.83,1.45,4.2Z"/><path class="b" d="m186.45,388.17c-.8.84-1.22,2.64-2.25,5.81-1.07,3.21-1.76,7.33-2.14,8.94-.38,1.6-.84,2.79-2.14,2.6-1.26-.19-2.41-2.37-2.56-3.09-.15-.73.27-1.3.73-1.91.42-.61,1.22-2.83,1.83-4.7.57-1.83.57-4.97,1.11-6.23.23-.53,1.11-2.25,1.34-3.82.23-1.6.46-3.4.73-3.7.19-.19.42-.31.65-.31.27,0,.65.19,1.15.84.53.65.76,1.3,1.03,1.91.27.65.46,1.07.92,1.11.46.08.76-.34.8-.34.08,0,.34.19.34.76,0,.61-.69,1.26-1.53,2.14Z"/><path class="b" d="m184.16,370.02c.15-.31.57-.95.95-.88.42.11.99,1.53,1.45,2.83.53,1.45.69,2.98.23,3.93-.42.95-1.45,1.68-1.99,2.52-.53.88-.57,1.3-.99,1.53-.38.27-.65.38-.76.19-.11-.15.04-3.17.23-4.24.27-1.26.8-1.91.8-3.25s-.04-2.33.08-2.64Z"/><path class="b" d="m202.72,404.28c-.53.08-2.18-.88-2.67-1.03-.5-.11-.8-.23-.73-.42.04-.15.27-.46.73-.8.46-.34.95-.92,1.03-1.37.11-.42-.69-1.72-.76-2.18-.04-.46.15-1.18.19-1.26.04-.11.11-.19.5-.15.38,0,.76.31,1.45.92.73.65,1.03,2.02,1.57,2.94s.73.8.69,1.49c-.08.65-1.45,1.79-1.99,1.87Z"/><path class="b" d="m206.35,373.31c.96-1.15,1.15-2.07,1.03-2.71-.11-.65-.57-1.23-1.25-1.65-.74-.42-1.61.27-1.65.5-.12.34,0,.57-.23,1.75-.22,1.23-.68,1.75-1.75,2.14-1.11.42-1.79-1.6-2.1-1.91-.26-.3-.42.37-.46.91-.07.57.12,2.9-.3,3.02-.39.12-1.23-1.57-1.72-1.94-.19-.12-.49.04-.81.37-.3.35-.3.96-.42,1.92-.07.95-.15,1.22-1.22,2.24-1.03,1.04-5.27,2.07-5.46,2.14-.08.05-.15.12-.15.2,0,.12.07.42.57.99.49.57,1.33.99,1.94,1.1.65.12,1.08.2,1.34.84.26.69.04,2.49-.05,3.33-.07.88-.84,1.64-1.91,2.4-1.08.77-1.5,1.77-1.5,2.49-.03.76,1.73,1.57,2.61,1.41.84-.15,1.75-.92,1.99-1.11.22-.23.57-.3.72-.19.15.11.57.64.64,1.48.04.84-1.3,1.72-1.87,1.99-.57.27-1.18.12-1.53.04-.34-.04-.42.12-.49.27-.04.15.15.61.49.88.32.3,1.65.12,1.83.27.15.12.5.57.42,1.5-.03.91-1.83,2.24-2.44,3.05-.64.76.46.81,1.08.57.64-.27,2.09-1.15,3.13-2.26,1.06-1.06,1.75-3.4,1.75-3.4,0,0,.99.15,2.1.08,1.06-.12,2.09-.65,3.28-1.48,1.22-.89,2.09-1.8,2.21-2.14.12-.32-.19-.77-1.11-1.15-.88-.39-1.99-.5-2.63-.5-.69-.04-.57.88-.69,1.41-.08.49-.57,1.06-1.64,1.41-1.08.34-.74-.84-.42-1.23.37-.49,1.03-1.15,2.24-2.63,1.19-1.53,1.11-2.37.81-2.98-.3-.61-.61-1.84-.39-2.14.23-.34.42-.27,1.57-.99s1.15-1.23.72-2.29c-.37-1.08-2.56-1.3-2.98-1.75-.37-.47-.15-1.46.32-2.41.46-.99,3.35-2.75,4.35-3.86Zm-11.36,7.83c.25-.32.67-.5,1.37-.51.7-.02,1.19.08,1.39.65.21.57-.07.89-1.15.96-1.08.07-1.86-.78-1.61-1.1Zm.54,8.68c-1.02-.01-1.04-.34-1.1-.53-.06-.18.18-.75.75-.94.57-.19,1.05-.06,1.27.07.22.12.82.65.82.65,0,0-.72.75-1.74.74Zm2.54-3.06c-.36.23-1.17.42-1.58.13-.41-.28-.3-.62-.3-.62.11-.56,1.13-1.08,1.71-.69.57.39.53.94.18,1.18Z"/><path class="b" d="m256.42,392.68c-1.55.34-2.51-.38-2.6-.8-.08-.46-.25-.96-.67-1.26-.46-.34-1.84-.42-2.43-.46-.59-.04-.67.59-.84,1.09-.13.5-2.26,4.11-3.02,4.99-.75.92-2.09.88-2.72.17-.63-.67-.21-1.59,1.26-3.23,1.51-1.63,2.6-3.98,2.6-4.48s-.21-1.21-.34-1.26c-.13-.08-.34,0-.71.21-.42.17-1.47,1.05-1.89,1.55-.46.5-1.01.92-1.42,1.09-.46.17-.92.13-1.22-.13-.29-.21-.75-.67-1.01-1.05-.25-.42-.17-.88.25-1.55.38-.63,1.34-.59,1.51-.59.21.04.71-.04,1.93-.54,1.17-.46,1.55-.71,1.8-.96.21-.21.59-.75.88-1.76.29-.96-.17-2.89-.5-3.81-.29-.88-1.05-1.47-1.22-1.68-.17-.17-.08-.38-.08-.96,0-.54-.13-1.01-.17-1.34-.04-.34.5-.63.8-.67.29-.04,1.09.42,1.34.63.25.17.59.04.92-.04.33-.04.63.13,1.26.5.63.38.71.71.71,1.09-.04.38-.8,1.89-.75,2.26.08.42.59,1.89.8,1.93.25.04.29-.46.59-.75.25-.34,1.13-.59,2.05-.38.92.25,1.26.84,1.26,1.22.04.38-.25.92-1.63,2.09-1.38,1.21-2.01,1.72-2.3,2.51-.29.8,0,1.26.59,1.68.63.38,2.51-.04,3.27-.21.8-.21,1.89.21,2.85.96s1.13,2.14,1.09,2.56c0,.38-.67,1.01-2.22,1.38Z"/><path class="b" d="m366.21,295.54v-60.08c15.63-7.6,17.15-37.7,18.19-41.06-1.38.84-12.57,12.95-26.51,13.1H72.73c-13.94-.15-25.13-12.26-26.51-13.1,1.04,3.37,2.56,33.47,18.19,41.06v60.08h-21.58l27.22,27.31h290.52l27.22-27.31h-21.58Z"/><path class="b" d="m215.31,421.5c-113.69,0-206.19-92.49-206.19-206.19S101.62,9.13,215.31,9.13s206.19,92.49,206.19,206.19-92.49,206.19-206.19,206.19Zm0-406.53C104.85,14.97,14.97,104.85,14.97,215.31s89.87,200.34,200.34,200.34,200.34-89.87,200.34-200.34S325.78,14.97,215.31,14.97Z"/><path class="d" d="m310.53,201.58c1.45-1.7,2.91-3.54,4.25-5.35H115.86c1.34,1.81,2.8,3.65,4.28,5.35h190.39Z"/><path class="d" d="m210.7,117.18h1.42c-1.25,2.09-2.8,9.71.11,16.11h0c-.35,0-.63.29-.63.63h0c0,.35.29.63.63.63h.94s4.52,0,4.52,0h0s.7,0,.7,0c.35,0,.63-.29.63-.63h0c0-.35-.28-.63-.63-.63h0c2.91-6.4,1.36-14.02.11-16.11h1.42c.45,0,.81-.37.81-.81s-.37-.81-.81-.81h-.09v-.18c0-1.19-.83-2.19-1.94-2.46.35-.32.58-.79.58-1.31v-.59c.31-.04.54-.31.54-.63,0-.35-.29-.63-.63-.63h-.63v-.11c0-.72-.57-1.32-1.28-1.37h-2.32c-.71.04-1.28.64-1.28,1.37v.11h-.63c-.35,0-.63.29-.63.63,0,.31.23.58.53.63v.32s0,.27,0,.27c0,.52.22.98.58,1.31-1.11.27-1.94,1.27-1.94,2.46v.18h-.09c-.45,0-.81.37-.81.81s.37.81.81.81Z"/><rect class="d" x="208.62" y="180.81" width="13.44" height="4.78"/><polygon class="d" points="169.99 182.11 169.99 187.38 159.95 192.27 159.95 186.96 169.99 182.11"/><polygon class="d" points="260.64 182.11 260.64 187.38 270.69 192.27 270.69 186.96 260.64 182.11"/><rect class="d" x="225.82" y="180.81" width="13.44" height="4.78"/><rect class="d" x="243.05" y="180.81" width="13.44" height="4.78"/><rect class="d" x="174.14" y="180.81" width="13.44" height="4.78"/><rect class="d" x="191.37" y="180.81" width="13.44" height="4.78"/><polygon class="d" points="72.51 317.39 358.12 317.39 364.96 310.54 65.67 310.54 72.51 317.39"/><polygon class="d" points="63.79 308.7 366.84 308.7 373.66 301.88 56.97 301.88 63.79 308.7"/><polygon class="d" points="146.99 291.45 283.64 291.45 282.57 288.24 148.06 288.24 146.99 291.45"/><polygon class="d" points="144.99 297.47 285.64 297.47 284.57 294.26 146.06 294.26 144.99 297.47"/><polygon class="d" points="150.1 282.22 148.99 285.43 281.64 285.43 280.54 282.22 150.1 282.22"/><path class="d" d="m146.69,208.71v-3.07h-7.3v5.13c2.72-.36,5.16-1.1,7.3-2.06Z"/><path class="d" d="m128.73,209.35c1.67,1.07,3.65,1.54,5.87,1.65v-5.35h-7.27v2.74c.47.36.93.66,1.4.96Z"/><path class="d" d="m302.07,209.35c.41-.25.82-.55,1.23-.85v-2.85h-7.27v5.35c2.28-.08,4.31-.55,6.03-1.65Z"/><path class="d" d="m291.24,210.74v-5.1h-7.27v3.02c2.11.96,4.55,1.73,7.27,2.08Z"/><path class="d" d="m71.12,228.96h288.39c8.81,0,14.17-17,14.17-17,0,0-13.9,8.36-24.54,1.65-10.64-6.72-22.24-27.31-22.24-27.31,0,0-11.6,20.6-22.24,27.31-10.64,6.72-24.54-1.64-24.54-1.64,0,0,1.9,6.66,5.63,11.65h-6.18c-.82-1.65-1.87-4.36-2.53-6.14-1.54-4.14-2.63-8.39-3.4-11.82h-1.67v17.97h-4.67v-17.98h-7.21v17.98h-4.88v-17.98h-7.21v17.98h-4.88v-17.98h-7.21v17.98h-4.88v-17.98h-7.21v17.98h-4.85v-17.98h-7.29v17.98h-4.85v-17.98h-7.21v17.98h-4.88v-17.98h-7.21v17.98h-4.88v-17.98h-7.21v17.98h-4.88v-17.98h-7.21v17.98h-4.64v-17.97h-1.67c-.77,3.43-1.87,7.68-3.4,11.82-.66,1.78-1.5,4.5-2.33,6.14h-6.15c3.73-4.98,5.43-11.65,5.43-11.65,0,0-13.9,8.36-24.54,1.64-10.64-6.72-22.24-27.31-22.24-27.31,0,0-11.6,20.59-22.24,27.31-10.64,6.72-24.54-1.65-24.54-1.65,0,0,5.36,17,14.17,17Z"/><path class="d" d="m151.96,184.17l18.68-9.07h89.34l18.68,9.07c14.35-2.25,19.52-18.76,19.52-18.76-9.91,10.43-32.11,6.98-28.36-3.37,3.27-8.48,1.67-14.02,1.67-14.02-4.35,7.9-11.85,10.39-16.76,10.53-5.74.16-10.16-3.34-10.16-3.34v-9.84l2.57-1.82v-9.09h-8.01v4.27h-18.9v-2.12h-10.03v2.12h-18.86v-4.27h-7.88v9.09l2.57,1.82v9.84s-4.41,3.5-10.16,3.34c-4.9-.14-12.41-2.63-16.76-10.53,0,0-1.6,5.53,1.67,14.02,3.75,10.35-18.45,13.8-28.36,3.37,0,0,5.16,16.51,19.52,18.76Z"/><path class="d" d="m71.4,234.66v62.83h64.85v-62.83h-64.85Zm22.57,22.84h-10.16v-10.16h10.16v10.16Zm14.93,0h-10.16v-10.16h10.16v10.16Zm14.97,0h-10.16v-10.16h10.16v10.16Z"/><path class="d" d="m294.38,234.66v62.83h64.85v-62.83h-64.85Zm22.53,22.84h-10.16v-10.16h10.16v10.16Zm14.97,0h-10.16v-10.16h10.16v10.16Zm14.97,0h-10.16v-10.16h10.16v10.16Z"/><path class="d" d="m220.07,234.47v-3.28l-9.55.04v3.25h-65.69l-.08,44.34h141.05l.08-44.34h-65.81Zm-26.85,5.35h17.3v3.86h-17.3v-3.86Zm-39.34,34.76h-3.78v-27.42h3.78v27.42Zm28.38-.08h-24.86v-23.95l5.12-3.36h14.97l4.77,3.36v23.95Zm0-30.82h-24.86v-3.86h24.86v3.86Zm7.18,30.9h-3.78v-27.38h3.78v27.38Zm0-30.9h-3.78v-3.86h3.78v3.86Zm36.67,30.9h-1.68v-17.03h-17.84v17.03h-1.68v-18.29h21.2v18.29Zm11.84,0h-10.12v-20.24h-24.83v20.24h-10.04v-24.06l5.08-3.32h34.34l5.58,3.32v24.06Zm0-30.9l-17.87-.04v-3.86l17.87.04v3.86Zm7.26,30.82h-3.9v-27.31h3.9v27.31Zm0-30.9h-3.9v-3.9h3.9v3.9Zm28.22,30.9h-24.86v-24.18l4.89-3.13h14.86l5.12,3.28v24.02Zm0-30.82h-24.86v-3.86h24.86v3.86Zm7.22,30.9h-3.86v-27.38h3.86v27.38Z"/><path class="b" d="m49.09,137.86l-2.33-.79-3.11,9.17,2.33.79,1.61-3.11,14.5,9.63-17.63-.51.76-3.76-2.34-.79-3.67,10.82,2.34.79.62-1.28c.53-1.11,1.94-1.45,2.93-.73l12.22,8.99-17.22-1.3.69-3.43-2.34-.79-3.68,10.84,2.34.79.5-1.04c.57-1.2,1.81-1.93,3.13-1.85l24.14,1.39.74-2.17-17-12.13,21,.35.75-2.21-21.86-14.34.59-3.32Z"/><path class="b" d="m77.28,118.05l-11.55-7.08,1.36-3.12-2.1-1.29-5.32,8.68,2.1,1.29,1.11-1.34c.83-1.01,2.27-1.25,3.38-.57l8.7,5.33c2.94,1.8,4.72,3.51,5.44,5.2.66,1.57.45,3.16-.69,5.01-1.46,2.38-3.98,4.6-10.55.57l-2.73-1.67c-2.37-1.45-5.46-3.35-8.52-5.31l1.66-3.62-2.11-1.29-6.19,10.1,2.11,1.29.58-.74c.81-1.03,2.26-1.3,3.39-.63,2.46,1.47,4.82,2.9,6.71,4.06l3.74,2.29c2.52,1.54,4.88,2.31,7.02,2.31,3.12,0,5.78-1.63,7.76-4.86,1.55-2.52,1.96-5.01,1.24-7.39-.8-2.63-3-5.06-6.53-7.22Z"/><path class="b" d="m105.75,98.06c-2.73-2.44-5.41-4.92-7.46-6.82l-1.46-1.36c-2.06-1.92-4.75-4.42-7.36-6.93l2.12-2.91-1.81-1.68-8.04,8.66,1.81,1.68.99-.84c1-.85,2.47-.82,3.45.06,1.92,1.74,3.74,3.41,5.24,4.81l-7.95,8.57c-2.76-2.56-4.9-4.58-6.84-6.45l2.11-2.9-1.81-1.68-8.04,8.66,1.81,1.68,1-.85c1-.85,2.47-.82,3.45.06,2.12,1.92,4.14,3.78,5.76,5.29l1.46,1.36c1.72,1.6,3.69,3.43,5.7,5.34.95.9,1.09,2.37.32,3.44l-.77,1.06,1.81,1.68,8.04-8.66-1.81-1.68-2.74,2.33c-2.35-2.11-4.76-4.33-7.42-6.79l7.95-8.57c2.02,1.88,3.9,3.63,5.67,5.3.95.9,1.09,2.37.31,3.43l-.77,1.06,1.81,1.68,8.04-8.66-1.81-1.68-2.74,2.33Z"/><path class="b" d="m128.33,78.05l-19.92-14.45-2.47,1.79,7.5,23.4c.37,1.16.06,2.43-.8,3.29l-1,1,1.44,1.99,7.9-5.74-1.45-1.99-3.26,1.72-1.89-5.84,6.79-4.92,4.99,3.66-2.71,2.53,1.45,1.99,9.25-6.72-1.45-1.99-.88.48c-1.11.61-2.47.52-3.49-.22Zm-9.5-1.46l-5.34,3.88-3.32-10.23,8.66,6.35Z"/><path class="b" d="m149.92,43.71l-1.05-2.22-9.26,4.37,1.05,2.23,2.02-.65c1.09-.35,2.28.16,2.77,1.2l6.05,12.83-20.27-11.66-6.02,2.84,1.05,2.23.48-.12c1.51-.38,3.08.37,3.75,1.78l7.39,15.68c.48,1.02.14,2.23-.79,2.85l-1.15.77,1.05,2.22,9.26-4.37-1.05-2.23-3.94,1.25-7.62-16.16,22.48,12.79,1.82-.86-10.79-22.89,2.77-1.88Z"/><path class="b" d="m224.14,32.21l1.81.29c1.3.21,2.24,1.35,2.2,2.66l-.42,13.9-12.78-19.59-6.65-.2-.07,2.47.48.11c1.52.35,2.58,1.72,2.53,3.28l-.53,17.33c-.03,1.12-.88,2.05-2,2.18l-1.38.16-.07,2.46,10.24.31.07-2.46-4.08-.68.54-17.86,14.24,21.6,2.02.06.77-25.3,3.32-.42.07-2.45-10.24-.31-.07,2.46Z"/><path class="b" d="m242.97,34l2.08.65c.78.24,1.26,1.03,1.13,1.83-.52,3.05-1.05,6-1.52,8.55l-.36,1.96c-.46,2.48-.99,5.33-1.57,8.25-.19.96-1.07,1.63-2.05,1.57l-1.88-.12-.45,2.43,11.64,2.15.45-2.43-1.8-.56c-.94-.29-1.52-1.23-1.35-2.2.52-3.03,1.05-5.95,1.47-8.26l.36-1.96c.47-2.56,1.02-5.51,1.62-8.53.16-.8.89-1.36,1.71-1.31l2.17.14.45-2.43-11.64-2.15-.45,2.43Z"/><path class="b" d="m287.28,46.17l.8-2.33-9.27-3.19-.86,2.52,2.99,1.4-11.17,14.87.13-18.7,3.47.86.87-2.52-10.85-3.73-.8,2.34.96.46c1.12.54,1.83,1.67,1.85,2.91l.27,24.98,2.18.75,14.79-19.66c.74-.99,1.99-1.47,3.21-1.24l1.46.28Z"/><path class="b" d="m297.07,76.97l-6.02-3.35c1.5-2.81,3.07-5.66,4.81-8.78l3.09,1.72c.72.4,1.03,1.27.72,2.03l-.89,2.24,2.26,1.26,5.07-9.11-2.26-1.26-1.48,1.97c-.49.65-1.39.85-2.1.45l-3.07-1.71c1.3-2.34,2.96-5.29,4.65-8.2l5.33,2.97c1.12.62,1.62,1.96,1.19,3.16l-1.01,2.85,2.67,1.48,3.66-7.2-17.64-9.81-1.2,2.16,1.07.77c1.06.77,1.39,2.21.77,3.36-1.36,2.52-2.69,4.92-3.76,6.85l-.97,1.75c-1.08,1.94-2.42,4.35-3.84,6.81-.65,1.14-2.05,1.62-3.26,1.12l-1.22-.5-1.2,2.16,18.32,10.18,4.19-6.91-2.67-1.48-1.88,2.36c-.8,1-2.2,1.28-3.31.66Z"/><path class="b" d="m334.42,82.57c1.47-1.82,1.97-3.9,1.44-6.02-.52-2.07-2.03-4.16-4.38-6.06l-8.79-7.1-1.55,1.92.92.94c.92.94.99,2.42.18,3.45-1.73,2.19-3.4,4.28-4.88,6.1l-1.26,1.55c-1.39,1.72-3.12,3.85-4.93,6.04-.84,1.02-2.31,1.26-3.43.55l-1.1-.69-1.55,1.92,9.21,7.44,1.55-1.92-2.52-2.59c1.94-2.49,3.96-5,6.02-7.55l1.15.93c2.35,1.9,2.95,3.07,1.61,5.83l-2.89,6.03c-.94,1.96-.49,3.39,1.61,5.08.89.72,1.75,1.23,2.62,1.56l.29.11,1.48-1.83-.94-.97c-.74-.76-.94-1.89-.52-2.86l1.67-3.83c1.08-2.49,1.22-4.4.42-6.1,3.34,1.3,6.54.61,8.59-1.93Zm-11.37-2.51l-2.01-1.62c2.23-2.76,4.27-5.27,6.33-7.72l2.28,1.84c1.43,1.15,2.23,2.34,2.39,3.51.15,1.14-.27,2.3-1.29,3.57-2.06,2.55-4.87,2.71-7.7.43Z"/><path class="b" d="m345.31,100.03l-.56-1.56c-1.05-2.92-.82-4.78.79-6.22.96-.86,2.06-1.22,3.19-1.05,1.09.17,2.16.82,3.11,1.87,0,.01.02.02.03.03,1.02,1.15.99,2.89.05,4.1l-1.69,2.15,2.12,2.37,4.6-3.76-.02-.22c-.18-2.42-1.11-4.59-2.77-6.45-1.71-1.91-3.81-3.14-5.92-3.45-2.24-.34-4.36.33-6.13,1.92-2.89,2.59-3.43,6.05-1.73,10.91l.53,1.52c1.26,3.54,1.14,5.07-.5,6.54-1.04.93-2.19,1.28-3.43,1.07-1.23-.21-2.48-1-3.62-2.27-.31-.34-.57-.67-.79-1-.79-1.17-.68-2.73.21-3.83l1.92-2.37-2.13-2.37-4.91,4.05.04.24c.37,2.46,1.74,5.26,3.57,7.31,1.86,2.08,4.01,3.35,6.22,3.7.4.06.79.09,1.18.09,1.86,0,3.61-.7,5.11-2.05,2.99-2.68,3.44-5.95,1.53-11.27Z"/><path class="b" d="m356.47,119.72l1.64-1.14c2.14-1.48,4.61-3.18,7.17-4.89.68-.45,1.59-.34,2.13.28l1.44,1.63,2.03-1.4-6.73-9.74-2.03,1.4,1.01,1.92c.38.72.17,1.62-.5,2.09-2.6,1.85-5.12,3.6-7.11,4.98l-1.64,1.14c-1.95,1.35-4.4,3.03-6.93,4.73-.82.55-1.91.41-2.56-.33l-1.25-1.42-2.03,1.4,6.73,9.74,2.03-1.4-.88-1.67c-.46-.87-.2-1.95.6-2.51,2.51-1.78,4.94-3.47,6.88-4.81Z"/><path class="b" d="m368.23,140.2l1.78-.9c2.69-1.35,5.85-2.93,9.06-4.47l1.31,2.61c.57,1.14.24,2.52-.79,3.28l-2.47,1.81,1.37,2.73,7.09-3.94-9.93-19.78-7.39,3.33,1.37,2.73,2.93-.9c1.22-.37,2.53.19,3.1,1.33l1.31,2.61c-3.19,1.68-6.33,3.26-8.99,4.6l-1.79.9c-2.11,1.06-4.76,2.38-7.5,3.71-.89.43-1.96.13-2.49-.7l-1.23-1.9-2.21,1.11,5.66,11.27,2.21-1.11-1.39-3.74c3.18-1.67,6.32-3.26,8.99-4.6Z"/><path class="b" d="m393.03,163.12l-2.36.71.51,3.29-11.78-1.57,9-7.73,1.42,3.23,2.36-.71-3.43-11.33-2.36.71.25,1.4c.2,1.11-.19,2.24-1.03,3l-8.76,7.9c-1.08.97-2.38,1.7-3.77,2.12-1.5.45-2.83.84-4.09,1.21-.79.23-1.63-.17-1.96-.93l-1.01-2.36-2.37.72,3.65,12.07,2.37-.72-.73-3.94c2.48-.8,5.18-1.62,7.75-2.4l13.53,1.91c1.07.15,2,.83,2.47,1.8l.81,1.67,2.35-.71-2.82-9.33Z"/><path class="b" d="m197.9,46.68l-2.21-13.37,3.25-1.01-.4-2.43-10.05,1.66.4,2.43,1.74-.04c1.3-.03,2.43.9,2.64,2.19l1.66,10.06c.56,3.41.44,5.87-.37,7.52-.75,1.53-2.1,2.41-4.24,2.76-2.76.46-6.08,0-7.34-7.6l-.52-3.16c-.45-2.74-1.04-6.32-1.57-9.92l3.83-1.11-.4-2.44-11.68,1.93.4,2.44.94-.04c1.31-.06,2.46.86,2.69,2.15.5,2.82.96,5.54,1.32,7.73l.71,4.32c.48,2.91,1.45,5.2,2.85,6.82,2.05,2.36,5.02,3.3,8.75,2.68,2.92-.48,5.07-1.8,6.4-3.9,1.46-2.33,1.86-5.58,1.19-9.66Z"/></svg>